<?xml version="1.0" encoding="utf-8"?>
<!-- Generator: Adobe Illustrator 26.5.0, SVG Export Plug-In . SVG Version: 6.00 Build 0)  -->
<svg version="1.1" id="Laag_1" xmlns="http://www.w3.org/2000/svg" xmlns:xlink="http://www.w3.org/1999/xlink" x="0px" y="0px"
	 width="546px" height="312px" viewBox="0 0 546 312" style="enable-background:new 0 0 546 312;" xml:space="preserve">
<style type="text/css">
	.st0{fill:#1A9AFA;}
	.st1{fill:#FFE600;}
	.st2{fill:#161D23;}
</style>
<g>
	<g>
		<path class="st0" d="M224.7,159.9c0-1.1-0.2-2.2-0.6-3.2c-0.6-1.8-2.1-3.2-3.9-3.8c-1-0.3-2.1-0.5-3.1-0.5h-11.8v15.1h11.8
			c2.1,0.2,4.1-0.6,5.7-2C224.2,163.9,224.9,161.9,224.7,159.9 M231.4,159.9c0,2-0.3,4.1-1.1,6c-0.7,1.6-1.7,3.1-3,4.3
			c-1.3,1.2-2.9,2.1-4.6,2.6c-1.9,0.6-3.9,0.9-5.9,0.9h-11.6V190H199v-43.8h18.4c1.9,0,3.8,0.3,5.6,0.9c1.7,0.5,3.2,1.4,4.5,2.6
			c1.3,1.2,2.3,2.7,2.9,4.3C231.1,155.8,231.5,157.8,231.4,159.9"/>
		<path class="st0" d="M254,176c-0.5-0.3-1.1-0.5-1.6-0.6c-0.5-0.2-1-0.3-1.5-0.4c-0.5,0-1.2-0.2-1.9-0.3s-1.6,0-2.4,0
			c-1.7-0.1-3.5,0.4-4.9,1.3c-1.2,0.8-1.9,2.1-1.8,3.6c0,0.9,0.1,1.7,0.5,2.5c0.3,0.7,0.7,1.2,1.3,1.7c0.6,0.4,1.2,0.8,1.9,1
			c0.9,0.2,1.7,0.3,2.6,0.3c0.9,0,1.8-0.2,2.6-0.5c0.8-0.2,1.6-0.6,2.3-1c0.7-0.4,1.3-0.8,1.9-1.3c0.5-0.4,1-0.9,1.4-1.5L254,176z
			 M254,190v-3.2c-0.6,0.6-1.3,1.2-2.1,1.7c-0.6,0.4-1.1,0.7-1.7,1c-0.7,0.4-1.5,0.6-2.3,0.9c-1,0.2-2,0.4-3,0.4
			c-1.4,0-2.7-0.2-4-0.6c-2.7-0.8-5-2.8-6.2-5.4c-0.7-1.6-1.1-3.4-1-5.1c0-1.6,0.3-3.2,1-4.6c0.6-1.3,1.6-2.4,2.7-3.3
			c1.3-0.9,2.7-1.6,4.2-1.9c1.7-0.4,3.4-0.6,5.2-0.6c1.5,0,2.9,0.1,4.4,0.3c1,0.2,2,0.5,3,0.9v-2.6c0.1-1.5-0.5-3.1-1.6-4.1
			c-1.3-1-3-1.6-4.6-1.4c-1.6,0-3.1,0.1-4.6,0.5c-1.4,0.3-2.7,0.9-4,1.6l-2.5-4.8c1.6-1,3.3-1.8,5.1-2.3c2-0.5,4.1-0.8,6.2-0.7
			c1.7,0,3.4,0.2,5,0.7c1.4,0.4,2.8,1.1,3.9,2c1.1,0.9,2,2.1,2.5,3.5c0.6,1.5,0.9,3.2,0.9,4.9V190H254z"/>
		<path class="st0" d="M284.5,163.9c-0.7-0.4-1.5-0.7-2.3-0.9c-0.9-0.2-1.7-0.2-2.6-0.2c-1.8-0.1-3.6,0.7-4.8,2.1
			c-1.2,1.9-1.8,4.1-1.7,6.4V190h-6.5v-32.9h6.5v3.1c0.4-0.6,0.8-1.1,1.3-1.5c0.5-0.5,1.1-0.9,1.8-1.2c0.7-0.3,1.4-0.6,2.1-0.8
			c0.8-0.2,1.5-0.3,2.3-0.3c1.1,0,2.2,0.1,3.3,0.4c0.8,0.2,1.6,0.6,2.3,1L284.5,163.9z"/>
		<path class="st0" d="M308.4,189.1c-0.9,0.5-1.8,0.9-2.8,1.1c-1.2,0.3-2.4,0.4-3.6,0.4c-1,0-2-0.1-2.9-0.5
			c-0.9-0.3-1.7-0.9-2.3-1.5c-0.7-0.7-1.2-1.7-1.5-2.7c-0.4-1.3-0.6-2.7-0.6-4.1v-19H290v-5.9h4.6v-9.3l6.3-3.5v12.8h8.1v5.9H301
			v17.9c0,0.6,0.1,1.3,0.2,1.9c0.1,0.4,0.3,0.9,0.6,1.2c0.3,0.3,0.6,0.5,1,0.6c0.5,0.1,1,0.2,1.5,0.2c0.9,0,1.7-0.1,2.6-0.4
			c0.8-0.2,1.5-0.5,2.2-0.9L308.4,189.1z"/>
		<path class="st0" d="M335.1,190v-18.6c0.2-2.4-0.4-4.8-1.6-6.8c-1.2-1.6-3.2-2.5-5.1-2.3c-0.9,0-1.9,0.2-2.8,0.5
			c-0.9,0.3-1.6,0.9-2.2,1.6c-0.6,0.8-1.1,1.7-1.4,2.6c-0.3,1.2-0.5,2.4-0.4,3.6V190h-6.5v-42.2l6.5-3.5v15.9
			c0.4-0.6,0.9-1.1,1.5-1.6c0.6-0.5,1.3-0.9,2-1.2c0.7-0.3,1.5-0.6,2.3-0.8c0.8-0.2,1.7-0.3,2.5-0.3c1.8,0,3.5,0.3,5.1,1
			c1.4,0.6,2.7,1.6,3.7,2.8c1.1,1.4,1.9,2.9,2.3,4.6c0.5,2.1,0.7,4.2,0.7,6.3v19H335.1z"/>
		<path class="st0" d="M368.1,170.5c-0.1-1.1-0.3-2.1-0.6-3.2c-0.3-1-0.8-1.8-1.4-2.6c-0.6-0.8-1.4-1.4-2.3-1.8
			c-1.1-0.5-2.2-0.7-3.4-0.6c-1,0-2.1,0.2-3,0.6c-0.9,0.4-1.7,0.9-2.3,1.6c-0.6,0.8-1.2,1.6-1.5,2.6c-0.4,1.1-0.7,2.3-0.8,3.5H368.1
			z M374.6,172.8c0,0.6,0,1.1,0,1.6c0,0.5,0,1-0.1,1.3h-21.8c0.1,1.4,0.5,2.8,1,4.1c0.4,1,1.1,2,1.9,2.8c0.7,0.7,1.6,1.3,2.5,1.6
			c0.9,0.3,1.9,0.5,2.9,0.5c1.3,0,2.6-0.2,3.9-0.7c0.6-0.3,1.1-0.5,1.6-0.8c0.5-0.3,1-0.6,1.7-1.1l3.8,4.1c-0.7,0.7-1.5,1.3-2.3,1.9
			c-0.7,0.5-1.5,0.9-2.3,1.3c-1,0.4-1.9,0.7-3,0.9c-1.2,0.2-2.4,0.3-3.6,0.3c-1.4,0-2.7-0.2-4-0.6c-1.2-0.4-2.3-0.9-3.3-1.6
			c-1-0.7-1.8-1.4-2.6-2.3c-0.9-1-1.6-2-2.2-3.2c-0.7-1.4-1.3-2.8-1.6-4.3c-0.4-1.7-0.6-3.5-0.6-5.2c0-2.5,0.3-5,1.1-7.4
			c0.6-2,1.6-3.8,2.9-5.4c1.3-1.4,2.9-2.6,4.6-3.3c1.9-0.8,3.8-1.1,5.8-1.1c2.1,0,4.2,0.4,6.1,1.3c1.7,0.9,3.2,2.1,4.3,3.6
			c1.1,1.6,2,3.5,2.4,5.4C374.5,168.6,374.7,170.8,374.6,172.8"/>
		<path class="st0" d="M399.4,190v-18.6c0.2-2.4-0.4-4.7-1.6-6.7c-1.2-1.6-3.2-2.5-5.2-2.3c-1,0-2,0.2-2.9,0.6
			c-0.9,0.3-1.7,0.9-2.3,1.7c-0.6,0.8-1,1.7-1.3,2.7c-0.3,1.1-0.4,2.2-0.4,3.4V190h-6.3v-32.9h6.4v3.1c0.4-0.6,0.9-1.1,1.5-1.6
			c0.6-0.5,1.3-0.9,2-1.2c0.7-0.3,1.5-0.6,2.3-0.8c0.8-0.2,1.7-0.3,2.5-0.3c1.8,0,3.5,0.3,5.1,1c1.4,0.6,2.7,1.6,3.6,2.8
			c1.1,1.4,1.9,2.9,2.3,4.6c0.5,2.1,0.8,4.3,0.7,6.4V190H399.4z"/>
		<path class="st0" d="M433.5,173.6c0-1.5-0.2-3-0.6-4.5c-0.3-1.3-0.9-2.4-1.7-3.5c-0.7-1-1.6-1.7-2.6-2.3c-1.1-0.5-2.3-0.8-3.5-0.8
			c-1.1,0-2.3,0.2-3.3,0.8c-1,0.5-1.8,1.3-2.5,2.2c-0.7,1-1.3,2.2-1.6,3.4c-0.4,1.4-0.6,2.9-0.6,4.4c0,1.6,0.2,3.2,0.6,4.8
			c0.3,1.3,0.9,2.4,1.7,3.5c0.7,0.9,1.6,1.7,2.6,2.2c1,0.5,2.2,0.7,3.3,0.7c1.2,0,2.3-0.3,3.3-0.9c1-0.6,1.9-1.4,2.6-2.3
			c0.7-1.1,1.3-2.2,1.6-3.5C433.3,176.4,433.5,175,433.5,173.6 M440,173.3c0,2.5-0.3,5-1.1,7.3c-0.7,2-1.7,3.8-3.1,5.4
			c-1.3,1.5-2.9,2.6-4.6,3.4c-1.9,0.8-3.9,1.2-5.9,1.2c-4,0.1-7.8-1.6-10.4-4.6c-1.3-1.6-2.4-3.4-3-5.4c-1.5-4.6-1.5-9.6,0-14.2
			c0.7-2,1.7-3.8,3.1-5.4c1.3-1.5,2.9-2.6,4.6-3.4c1.8-0.8,3.8-1.2,5.8-1.2c2,0,4,0.4,5.8,1.2c1.8,0.8,3.4,2,4.6,3.4
			c1.4,1.6,2.4,3.4,3.1,5.3C439.7,168.6,440.1,170.9,440,173.3"/>
		<path class="st0" d="M464.8,190v-18.6c0.2-2.4-0.4-4.7-1.6-6.7c-1.2-1.6-3.2-2.5-5.2-2.3c-1,0-2,0.2-2.9,0.6
			c-0.9,0.3-1.6,0.9-2.2,1.7c-0.6,0.8-1.1,1.7-1.3,2.7c-0.3,1.1-0.4,2.2-0.4,3.4V190h-6.4v-32.9h6.4v3.1c0.4-0.6,0.9-1.2,1.5-1.6
			c0.6-0.5,1.2-0.9,1.9-1.2c0.7-0.3,1.5-0.6,2.3-0.8c0.8-0.2,1.7-0.3,2.5-0.3c1.8,0,3.5,0.3,5.2,1c1.4,0.6,2.7,1.6,3.6,2.8
			c1.1,1.4,1.8,3,2.2,4.6c0.5,2.1,0.8,4.3,0.7,6.4V190H464.8z"/>
	</g>
	<g>
		<polygon class="st1" points="199,63.1 74.7,108.4 199,86.5 199,63.1 		"/>
		<path class="st2" d="M158.4,127.2l-10.7,20.5l-10.6-20.5h-20.9l22,37.9V190H157v-24.8l22-37.9H158.4z M74.7,127.2V190H125v-14.4
			H93.5v-10.4h22.7V152H93.5v-10.4h25.2l-8.3-14.4L74.7,127.2z"/>
	</g>
</g>
</svg>
